<svg width="36" height="36" fill="none" xmlns="http://www.w3.org/2000/svg"><g clip-path="url(#clip0_594_184)"><path d="M36 18c0 9.945-8.055 18-18 18S0 27.945 0 18 8.055 0 18 0s18 8.055 18 18z" fill="url(#paint0_linear_594_184)"/><path d="M14.7 26.25c-.585 0-.48-.225-.69-.78l-1.71-5.64 10.62-6.63 1.245.33-1.035 2.82-8.43 9.9z" fill="#C8DAEA"/><path d="M14.7 26.25c.45 0 .645-.21.9-.45.39-.375 5.4-5.25 5.4-5.25l-3.075-.75-2.85 1.8-.375 4.5v.15z" fill="#A9C9DD"/><path d="M15 21.66l7.26 5.355c.825.45 1.425.225 1.635-.765l2.955-13.92c.3-1.215-.465-1.755-1.26-1.395l-17.34 6.69c-1.185.48-1.17 1.14-.21 1.425l4.455 1.395L22.8 13.95c.48-.3.93-.135.57.195L15 21.66z" fill="url(#paint1_linear_594_184)"/></g><defs><linearGradient id="paint0_linear_594_184" x1="23.276" y1="5.689" x2="14.275" y2="26.689" gradientUnits="userSpaceOnUse"><stop stop-color="#FFC010"/><stop offset="1" stop-color="#E89D00"/></linearGradient><linearGradient id="paint1_linear_594_184" x1="19.349" y1="18.563" x2="23.099" y2="24.563" gradientUnits="userSpaceOnUse"><stop stop-color="#EFF7FC"/><stop offset="1" stop-color="#fff"/></linearGradient><clipPath id="clip0_594_184"><path fill="#fff" d="M0 0h36v36H0z"/></clipPath></defs></svg>