<?xml version="1.0" encoding="utf-8"?><svg viewBox="0 0 416 297" xmlns="http://www.w3.org/2000/svg" xmlns:xlink="http://www.w3.org/1999/xlink"><style>:root>svg{display:none}:root>svg:target{display:block}</style><svg fill="none" viewBox="0 0 416 297" id="Arrow2" xmlns="http://www.w3.org/2000/svg"><path d="M414.991 276.924a1.5 1.5 0 00-.472-2.068l-11.433-7.18a1.5 1.5 0 00-1.595 2.541l10.162 6.382-6.382 10.162a1.5 1.5 0 102.54 1.595l7.18-11.432zM.501 1.019C2.072 127.738 38.697 212.297 108.642 257.43c69.86 45.08 172.51 50.523 305.412 20.158l-.668-2.925c-132.648 30.307-234.289 24.661-303.118-19.753C41.526 210.551 5.066 127.21 3.499.981L.5 1.02z" fill="#fff"/></svg><svg fill="none" viewBox="0 0 353 207" id="Arrow3" xmlns="http://www.w3.org/2000/svg"><path d="M2.985 204.896a1.5 1.5 0 001.766 1.175l13.236-2.657a1.5 1.5 0 10-.59-2.941L5.63 202.835l-2.36-11.766a1.5 1.5 0 00-2.942.591l2.657 13.236zM352.102.304C263.369 8.29 199.817 23.491 146.579 54.595 93.336 85.704 50.56 132.63 3.207 203.77l2.498 1.663c47.24-70.971 89.711-117.47 142.388-148.246 52.682-30.78 115.724-45.925 204.278-53.894l-.269-2.988z" fill="#fff"/></svg><svg fill="none" viewBox="0 0 395 267" id="Arrow4" xmlns="http://www.w3.org/2000/svg"><path d="M394.278 255.94a1.5 1.5 0 00-.193-2.112l-10.373-8.641a1.5 1.5 0 10-1.92 2.306l9.221 7.68-7.68 9.22a1.501 1.501 0 002.305 1.92l8.64-10.373zM.448 1.232C16.776 105.76 57.08 174.975 122.468 215.336c65.311 40.314 155.362 51.659 270.794 41.138l-.273-2.988c-115.195 10.499-204.457-.896-268.945-40.702C59.632 173.025 19.653 104.739 3.412.768l-2.964.464z" fill="#fff"/></svg><svg fill="none" viewBox="0 0 338 262" id="Arrow5" xmlns="http://www.w3.org/2000/svg"><path d="M9.066 260.893a1.5 1.5 0 002.1.302l10.805-8.093a1.5 1.5 0 00-1.799-2.401l-9.604 7.193-7.194-9.604a1.5 1.5 0 00-2.401 1.798l8.093 10.805zM337.355.471C189.357 2.405 30.692 107.122 8.781 259.781l2.97.426C33.395 109.402 190.44 5.391 337.395 3.471l-.04-3z" fill="#fff"/></svg><svg fill="none" viewBox="0 0 16 9" id="arrow" xmlns="http://www.w3.org/2000/svg"><path d="M7.293 8.707a1 1 0 001.414 0l6.364-6.364A1 1 0 0013.657.93L8 6.586 2.343.929A1 1 0 00.93 2.343l6.364 6.364zM7 7v1h2V7H7z" fill="#fff"/></svg><svg fill="none" viewBox="0 0 34 34" id="close" xmlns="http://www.w3.org/2000/svg"><g clip-path="url(#fclip0_550_324)"><path d="M9.9 9.9c3.904-3.906 10.236-3.906 14.141 0 3.905 3.905 3.905 10.236 0 14.141-3.905 3.906-10.237 3.906-14.142 0-3.905-3.905-3.905-10.236 0-14.142zm3.535 3.535a.75.75 0 00-.067.984l.067.077 2.475 2.475-2.475 2.474a.75.75 0 00.984 1.128l.076-.067 2.475-2.475 2.475 2.475a.75.75 0 001.128-.984l-.067-.077-2.475-2.474 2.475-2.475a.75.75 0 00-.984-1.128l-.077.067-2.475 2.475-2.475-2.475a.75.75 0 00-1.06 0z" fill="#212121"/></g><defs><clipPath id="fclip0_550_324"><path fill="#fff" transform="rotate(-45 20.485 8.485)" d="M0 0h24v24H0z"/></clipPath></defs></svg><svg fill="none" viewBox="0 0 204 35" id="logo" xmlns="http://www.w3.org/2000/svg"><path fill="#FFBC00" d="M130.6 23.8c-.6 2.9-2.1 5.3-4.7 7.4-2.6 2-5.4 3-8.5 3H95.1l7-34h22.3c3 0 5.5 1 7.2 3 1.8 2 2.3 4.5 1.7 7.4-.4 2.1-1.8 4.3-4.3 6.6 1.5 2.3 2 4.5 1.6 6.6zm-8.2 0c.2-.8 0-1.4-.4-2-.5-.4-1-.7-1.9-.7h-9.6l1.7-7.8h9.5c.8 0 1.5-.2 2.2-.8.6-.5 1-1.1 1.2-1.9.2-.7 0-1.3-.4-1.9-.5-.5-1-.7-1.9-.7h-14.1l-3.8 18.5H119c.8 0 1.5-.3 2.2-.8.6-.5 1-1.2 1.2-2zm39 10.5h-30.9l7-34.1h30.9L166.8 8h-22.6l-1.1 5.3h17.4l-1.6 7.8h-17.4l-1.1 5.4H163l-1.6 7.8zM202.3 8h-12.6l-5.4 26.3H176L181.4 8h-12.6l1.6-7.8H204L202.3 8z"/><path fill="#fff" d="M38.6 34.2h-8.3l3.2-15.4L22 34.2h-5.2l-5.3-15.4-3.2 15.4H0l7-34h8.2L22 21 37.3.1h8.3l-7 34.1zm32.9 0H40.6l7-34h30.9L76.9 8H54.2l-1 5.3h17.4L69 21.1H51.5l-1 5.4H73l-1.6 7.7zm28.3 0H73.5l7-34h8.3l-5.4 26.3h18l-1.6 7.7z"/></svg></svg>