<svg width="36" height="36" viewBox="0 0 36 36" fill="none" xmlns="http://www.w3.org/2000/svg">
<g clip-path="url(#clip0_594_184)">
<path d="M36 18C36 27.945 27.945 36 18 36C8.055 36 0 27.945 0 18C0 8.055 8.055 0 18 0C27.945 0 36 8.055 36 18Z" fill="url(#paint0_linear_594_184)"/>
<path d="M14.6998 26.25C14.1148 26.25 14.2198 26.025 14.0098 25.47L12.2998 19.83L22.9198 13.2L24.1648 13.53L23.1298 16.35L14.6998 26.25Z" fill="#C8DAEA"/>
<path d="M14.7002 26.25C15.1502 26.25 15.3452 26.04 15.6002 25.8C15.9902 25.425 21.0002 20.55 21.0002 20.55L17.9252 19.8L15.0752 21.6L14.7002 26.1V26.25Z" fill="#A9C9DD"/>
<path d="M14.9999 21.66L22.2599 27.015C23.0849 27.465 23.6849 27.24 23.8949 26.25L26.8499 12.33C27.1499 11.115 26.3849 10.575 25.5899 10.935L8.24991 17.625C7.06491 18.105 7.07991 18.765 8.03991 19.05L12.4949 20.445L22.7999 13.95C23.2799 13.65 23.7299 13.815 23.3699 14.145L14.9999 21.66Z" fill="url(#paint1_linear_594_184)"/>
</g>
<defs>
<linearGradient id="paint0_linear_594_184" x1="23.2755" y1="5.6895" x2="14.2755" y2="26.6892" gradientUnits="userSpaceOnUse">
<stop stop-color="#FFC010"/>
<stop offset="1" stop-color="#E89D00"/>
</linearGradient>
<linearGradient id="paint1_linear_594_184" x1="19.3486" y1="18.5633" x2="23.0986" y2="24.5633" gradientUnits="userSpaceOnUse">
<stop stop-color="#EFF7FC"/>
<stop offset="1" stop-color="white"/>
</linearGradient>
<clipPath id="clip0_594_184">
<rect width="36" height="36" fill="white"/>
</clipPath>
</defs>
</svg>
