<svg width="416" height="297" viewBox="0 0 416 297" fill="none" xmlns="http://www.w3.org/2000/svg">
<path d="M414.991 276.924C415.432 276.223 415.22 275.297 414.519 274.856L403.086 267.676C402.385 267.236 401.459 267.447 401.018 268.149C400.577 268.85 400.789 269.776 401.491 270.217L411.653 276.599L405.271 286.761C404.83 287.462 405.042 288.388 405.743 288.829C406.445 289.27 407.371 289.058 407.811 288.356L414.991 276.924ZM0.500115 1.01861C2.07251 127.738 38.6981 212.297 108.643 257.431C178.503 302.511 281.153 307.954 414.055 277.589L413.387 274.664C280.739 304.971 179.098 299.325 110.269 254.911C41.526 210.551 5.06619 127.21 3.49988 0.981389L0.500115 1.01861Z" fill="white"/>
</svg>
