<svg width="338" height="262" viewBox="0 0 338 262" fill="none" xmlns="http://www.w3.org/2000/svg">
<path d="M9.06565 260.893C9.56227 261.556 10.5024 261.691 11.1655 261.195L21.9708 253.102C22.6338 252.605 22.7687 251.665 22.2721 251.002C21.7755 250.339 20.8354 250.204 20.1723 250.701L10.5676 257.894L3.37389 248.29C2.87726 247.627 1.93716 247.492 1.27407 247.988C0.611018 248.485 0.476086 249.425 0.972716 250.088L9.06565 260.893ZM337.355 0.471319C189.357 2.40503 30.6917 107.122 8.78146 259.781L11.751 260.207C33.3952 109.402 190.44 5.39114 337.395 3.47106L337.355 0.471319Z" fill="white"/>
</svg>
