<svg width="395" height="267" viewBox="0 0 395 267" fill="none" xmlns="http://www.w3.org/2000/svg">
<path d="M394.278 255.94C394.808 255.304 394.722 254.358 394.085 253.828L383.712 245.187C383.076 244.657 382.13 244.743 381.6 245.38C381.07 246.017 381.156 246.962 381.792 247.493L391.013 255.173L383.333 264.393C382.803 265.03 382.889 265.975 383.525 266.506C384.162 267.036 385.108 266.95 385.638 266.313L394.278 255.94ZM0.44766 1.23151C16.776 105.761 57.0813 174.975 122.468 215.336C187.779 255.65 277.83 266.995 393.262 256.474L392.989 253.486C277.794 263.985 188.532 252.59 124.044 212.784C59.6325 173.025 19.6529 104.739 3.41171 0.768494L0.44766 1.23151Z" fill="white"/>
</svg>
