<svg width="353" height="207" viewBox="0 0 353 207" fill="none" xmlns="http://www.w3.org/2000/svg">
<path d="M2.98522 204.896C3.14825 205.708 3.93887 206.234 4.7511 206.071L17.9871 203.414C18.7993 203.251 19.3256 202.461 19.1625 201.648C18.9995 200.836 18.2088 200.31 17.3966 200.473L5.63133 202.835L3.26959 191.069C3.10653 190.257 2.31594 189.731 1.50371 189.894C0.691478 190.057 0.165218 190.848 0.328258 191.66L2.98522 204.896ZM352.102 0.304376C263.369 8.28877 199.817 23.4905 146.579 54.5954C93.3361 85.7038 50.5605 132.63 3.20722 203.769L5.70455 205.432C52.9455 134.461 95.4163 87.9629 148.093 57.1857C200.775 26.4051 263.817 11.2606 352.371 3.2923L352.102 0.304376Z" fill="white"/>
</svg>
