<svg width="34" height="34" viewBox="0 0 34 34" fill="none" xmlns="http://www.w3.org/2000/svg">
<g clip-path="url(#clip0_550_324)">
<path d="M9.89919 9.89939C13.8044 5.99418 20.1361 5.99415 24.0413 9.89939C27.9465 13.8046 27.9465 20.1363 24.0413 24.0415C20.1361 27.9468 13.8044 27.9467 9.89919 24.0415C5.99395 20.1363 5.99395 13.8046 9.89919 9.89939ZM13.4347 13.4349C13.1662 13.7034 13.1439 14.1248 13.3676 14.4188L13.4347 14.4956L15.9096 16.9705L13.4347 19.4453C13.1418 19.7382 13.1418 20.2131 13.4347 20.506C13.7032 20.7745 14.1246 20.7969 14.4186 20.5731L14.4954 20.506L16.9703 18.0311L19.4451 20.506C19.738 20.7989 20.2129 20.7989 20.5058 20.506C20.7743 20.2375 20.7966 19.8161 20.573 19.5221L20.5058 19.4453L18.0309 16.9705L20.5058 14.4956C20.7987 14.2027 20.7987 13.7278 20.5058 13.4349C20.2373 13.1664 19.8159 13.1441 19.5219 13.3677L19.4451 13.4349L16.9703 15.9098L14.4954 13.4349C14.2025 13.142 13.7276 13.142 13.4347 13.4349Z" fill="#212121"/>
</g>
<defs>
<clipPath id="clip0_550_324">
<rect width="24" height="24" fill="white" transform="translate(0 16.9705) rotate(-45)"/>
</clipPath>
</defs>
</svg>
